<?xml version="1.0" encoding="UTF-8" standalone="no"?><svg xmlns="http://www.w3.org/2000/svg" xmlns:xlink="http://www.w3.org/1999/xlink" contentScriptType="application/ecmascript" contentStyleType="text/css" height="247px" preserveAspectRatio="none" style="width:351px;height:247px;background:#FFFFFF;" version="1.1" viewBox="0 0 351 247" width="351px" zoomAndPan="magnify"><defs><filter height="300%" id="f1a0ci7xtkrjlp" width="300%" x="-1" y="-1"><feGaussianBlur result="blurOut" stdDeviation="2.0"/><feColorMatrix in="blurOut" result="blurOut2" type="matrix" values="0 0 0 0 0 0 0 0 0 0 0 0 0 0 0 0 0 0 .4 0"/><feOffset dx="4.0" dy="4.0" in="blurOut2" result="blurOut3"/><feBlend in="SourceGraphic" in2="blurOut3" mode="normal"/></filter></defs><g><rect fill="#FEFECE" filter="url(#f1a0ci7xtkrjlp)" height="36.2969" rx="12.5" ry="12.5" style="stroke:#A80036;stroke-width:1.5;" width="51" x="10" y="104.4453"/><text fill="#000000" font-family="sans-serif" font-size="14" lengthAdjust="spacing" textLength="31" x="20" y="127.4404">4s店</text><rect fill="#FEFECE" filter="url(#f1a0ci7xtkrjlp)" height="36.2969" rx="12.5" ry="12.5" style="stroke:#A80036;stroke-width:1.5;" width="48" x="111" y="48.1484"/><text fill="#000000" font-family="sans-serif" font-size="14" lengthAdjust="spacing" textLength="28" x="121" y="71.1436">汽车</text><rect fill="#FEFECE" filter="url(#f1a0ci7xtkrjlp)" height="36.2969" rx="12.5" ry="12.5" style="stroke:#A80036;stroke-width:1.5;" width="112" x="209" y="20"/><text fill="#000000" font-family="sans-serif" font-size="14" lengthAdjust="spacing" textLength="92" x="219" y="42.9951">名称: 奔驰600</text><path d="M159,66.2969 L169,66.2969 C184,66.2969 184,38.1484 199,38.1484 L209,38.1484 " fill="none" style="stroke:#A80036;stroke-width:1.0;"/><rect fill="#FEFECE" filter="url(#f1a0ci7xtkrjlp)" height="36.2969" rx="12.5" ry="12.5" style="stroke:#A80036;stroke-width:1.5;" width="84" x="209" y="76.2969"/><text fill="#000000" font-family="sans-serif" font-size="14" lengthAdjust="spacing" textLength="64" x="219" y="99.292">价格: 100</text><path d="M159,66.2969 L169,66.2969 C184,66.2969 184,94.4453 199,94.4453 L209,94.4453 " fill="none" style="stroke:#A80036;stroke-width:1.0;"/><path d="M61,122.5938 L71,122.5938 C86,122.5938 86,66.2969 101,66.2969 L111,66.2969 " fill="none" style="stroke:#A80036;stroke-width:1.0;"/><rect fill="#FEFECE" filter="url(#f1a0ci7xtkrjlp)" height="36.2969" rx="12.5" ry="12.5" style="stroke:#A80036;stroke-width:1.5;" width="48" x="111" y="160.7422"/><text fill="#000000" font-family="sans-serif" font-size="14" lengthAdjust="spacing" textLength="28" x="121" y="183.7373">汽车</text><rect fill="#FEFECE" filter="url(#f1a0ci7xtkrjlp)" height="36.2969" rx="12.5" ry="12.5" style="stroke:#A80036;stroke-width:1.5;" width="123" x="209" y="132.5938"/><text fill="#000000" font-family="sans-serif" font-size="14" lengthAdjust="spacing" textLength="103" x="219" y="155.5889">名称: 奔驰G350</text><path d="M159,178.8906 L169,178.8906 C184,178.8906 184,150.7422 199,150.7422 L209,150.7422 " fill="none" style="stroke:#A80036;stroke-width:1.0;"/><rect fill="#FEFECE" filter="url(#f1a0ci7xtkrjlp)" height="36.2969" rx="12.5" ry="12.5" style="stroke:#A80036;stroke-width:1.5;" width="75" x="209" y="188.8906"/><text fill="#000000" font-family="sans-serif" font-size="14" lengthAdjust="spacing" textLength="55" x="219" y="211.8857">价格: 10</text><path d="M159,178.8906 L169,178.8906 C184,178.8906 184,207.0391 199,207.0391 L209,207.0391 " fill="none" style="stroke:#A80036;stroke-width:1.0;"/><path d="M61,122.5938 L71,122.5938 C86,122.5938 86,178.8906 101,178.8906 L111,178.8906 " fill="none" style="stroke:#A80036;stroke-width:1.0;"/></g></svg>